<?xml version="1.0" encoding="iso-8859-1"?>
<!-- Generator: Adobe Illustrator 19.0.0, SVG Export Plug-In . SVG Version: 6.00 Build 0)  -->
<svg version="1.1" id="Capa_1" xmlns="http://www.w3.org/2000/svg" xmlns:xlink="http://www.w3.org/1999/xlink" x="0px" y="0px"
	 viewBox="0 0 496 496" style="enable-background:new 0 0 496 496;" xml:space="preserve">
<g>
	<path style="fill:#333333;" d="M466.656,120.257c-0.648-0.472-1.376-0.848-2.08-1.264c4.512-2.672,8.8-5.872,12.68-9.752
		c24.944-24.952,24.944-65.56,0-90.512c-24.952-24.952-65.56-24.952-90.512,0c-24.944,24.952-24.944,65.56,0,90.512
		c4.832,4.832,10.256,8.696,16.032,11.656c-16.896,10.648-28.808,27.68-33.04,47.256l-39.216-11.208
		c-3.496-0.984-7.056-1.128-10.52-0.576v-36.384c0-8.392-3.536-16.464-9.712-22.136c-6.168-5.688-14.512-8.536-22.864-7.84
		L208,96.625v46.72l72,6v46.64c0,11.032,8.968,20,20,20c8.088,0,15.024-4.84,18.176-11.76L368,218.065v53.92
		c0,7.096,3.152,13.416,8.064,17.808l8.248,206.192H496v-200v-16v-128C496,135.249,483.048,121.633,466.656,120.257z
		 M398.056,30.041c9.36-9.352,21.648-14.032,33.944-14.032c12.288,0,24.584,4.68,33.944,14.032c18.712,18.72,18.712,49.168,0,67.888
		c-18.72,18.688-49.168,18.704-67.888,0C379.344,79.209,379.344,48.761,398.056,30.041z M424.072,128.393l2.144-0.712
		c1.688,0.152,3.376,0.224,5.064,0.24c-1.208,2.112-2.2,4.352-2.744,6.792l-10.496,47.248l-32.792-9.368
		C389.272,152.217,403.8,135.153,424.072,128.393z M288.752,105.945c4.016-0.288,7.776,0.976,10.704,3.672
		c2.928,2.704,4.544,6.384,4.544,10.368c0,3.984-1.616,7.664-4.544,10.368c-2.928,2.696-6.688,4-10.704,3.672L256,131.297v-22.616
		L288.752,105.945z M224,111.345l16-1.336v19.952l-16-1.336V111.345z M300,199.985c-2.2,0-4-1.8-4-4v-46.584
		c2.8-0.584,5.472-1.624,8-2.968v19.8c-1.768,2.472-3.112,5.248-3.872,8.288c-1.824,7.28-0.152,14.496,3.872,20.112v1.36
		C304,198.185,302.2,199.985,300,199.985z M315.64,178.401c0.56-2.232,1.968-4.096,3.96-5.248c1.304-0.752,2.744-1.136,4.2-1.136
		c0.776,0,1.552,0.112,2.328,0.328l103.832,29.664l14.184-63.832c0.496-2.232,1.832-4.136,3.784-5.336
		c1.952-1.208,4.264-1.552,6.48-1.016c4.432,1.112,7.192,5.624,6.168,10.072l-12.848,55.704c-1.488,6.44-5.44,11.848-11.128,15.224
		c-5.688,3.384-12.32,4.272-18.688,2.496l-96.352-26.768C317.128,187.329,314.52,182.865,315.64,178.401z M392.328,295.985h16.576
		l22.08,184h-31.296L392.328,295.985z M480,479.985h-32.904l-22.08-184H480V479.985z M392,279.985c-4.416,0-8-3.584-8-8v-49.472
		l29.632,8.232c3.568,0.992,7.192,1.488,10.8,1.488c7.088,0,14.072-1.904,20.352-5.64c9.48-5.632,16.056-14.648,18.536-25.392
		l12.848-55.696c0.256-1.096,0.32-2.184,0.416-3.272c2.112,2.704,3.416,6.064,3.416,9.752v128H392z"/>
	<path style="fill:#333333;" d="M216,183.985h-16c-1.68,0-3.32,0.184-4.904,0.512c9.584-23.208,4.984-50.936-13.84-69.768
		c-24.952-24.952-65.56-24.952-90.512,0c-24.944,24.952-24.944,65.56,0,90.512c3.544,3.544,7.432,6.528,11.52,9.064
		C84.312,223.649,72,242.393,72,263.985v9.472c-9.288,3.312-16,12.112-16,22.528c0,3.336,0.688,6.512,1.928,9.4
		C24.944,311.953,0,341.097,0,375.985v120h64v-84.448c4.728,2.752,10.144,4.448,16,4.448h40v33.472
		c-9.288,3.312-16,12.112-16,22.528v24h96v-24c0-10.416-6.712-19.216-16-22.528v-33.472h16c22.056,0,40-17.944,40-40v-120v-48
		C240,194.753,229.232,183.985,216,183.985z M216,199.985c4.416,0,8,3.584,8,8v25.472c-2.512-0.896-5.184-1.472-8-1.472h-16
		c-2.816,0-5.488,0.576-8,1.472v-25.472c0-4.416,3.584-8,8-8H216z M168,319.985c2.816,0,5.488-0.576,8-1.472v33.472h-72v-32H168z
		 M102.056,126.041c9.36-9.352,21.648-14.032,33.944-14.032c12.288,0,24.584,4.68,33.944,14.032
		c18.712,18.72,18.712,49.168,0,67.888c-18.72,18.696-49.168,18.704-67.888,0C83.344,175.209,83.344,144.761,102.056,126.041z
		 M128,223.985h8v-0.032c2.672,0,5.344-0.232,8-0.56v48.592H88v-8C88,241.929,105.944,223.985,128,223.985z M80,287.985h80v-64h16
		v32v40c0,4.416-3.584,8-8,8H80c-4.416,0-8-3.584-8-8S75.584,287.985,80,287.985z M48,479.985H16v-104c0-30.872,25.128-56,56-56h8h8
		v32h-8c-17.648,0-32,14.352-32,32V479.985z M184,479.985h-64v-8c0-4.416,3.584-8,8-8h48c4.416,0,8,3.584,8,8V479.985z M168,447.985
		h-32v-32h32V447.985z M224,375.985c0,13.232-10.768,24-24,24h-16h-64H80c-8.824,0-16-7.176-16-16s7.176-16,16-16h112v-72v-40
		c0-4.416,3.584-8,8-8h16c4.416,0,8,3.584,8,8V375.985z"/>
</g>
<g>
	<circle style="fill:#FFA64D;" cx="136" cy="159.985" r="32"/>
	<circle style="fill:#FFA64D;" cx="432" cy="63.985" r="32"/>
	<rect x="384" y="231.985" style="fill:#FFA64D;" width="96" height="32"/>
</g>
<g>
</g>
<g>
</g>
<g>
</g>
<g>
</g>
<g>
</g>
<g>
</g>
<g>
</g>
<g>
</g>
<g>
</g>
<g>
</g>
<g>
</g>
<g>
</g>
<g>
</g>
<g>
</g>
<g>
</g>
</svg>
