<svg id="Layer_1" enable-background="new 0 0 512 512" height="512" viewBox="0 0 512 512" width="512" xmlns="http://www.w3.org/2000/svg"><g><path d="m185.678 128.891c26.647 0 49.866-5.898 66.332-16.724 16.465 10.827 39.685 16.724 66.332 16.724 52.359 0 88.225-10.452 109.647-31.953 14.455-14.508 21.739-33.798 21.652-57.348-.04-7.966-4.765-15.19-12.04-18.403-7.262-3.212-15.781-1.86-21.716 3.463-19.164 17.261-34.597 15.81-66.05-6.204-17.725-12.412-35.26-18.446-53.604-18.446-20.099 0-34.934 9.142-44.221 16.313-9.287-7.171-24.122-16.313-44.221-16.313-18.106 0-35.439 5.9-52.987 18.038-32.072 22.171-47.649 23.714-66.669 6.611-5.938-5.346-14.475-6.702-21.716-3.461-7.274 3.214-11.999 10.437-12.038 18.414-.087 23.534 7.199 42.824 21.653 57.331 21.426 21.504 57.291 31.958 109.646 31.958z"/><path d="m201.88 158.25c3.1 24.9 24.4 44.23 50.13 44.23s47.03-19.33 50.13-44.23c-18.52-1.49-35.44-5.57-50.13-12.08-14.69 6.51-31.61 10.59-50.13 12.08z"/><path d="m462.92 101.02c-3.9 6.15-8.47 11.86-13.68 17.09-25.2 25.3-63.56 38.61-116.99 40.54-3.41 41.28-38.09 73.83-80.24 73.83s-76.83-32.55-80.24-73.83c-53.43-1.93-91.79-15.24-116.99-40.54-2.83-2.84-5.47-5.82-7.91-8.94-2.75 11.76-4.14 23.67-4.14 35.55 0 20.07 3.77 39.77 10.78 57.57 9.39-13.79 23.26-24.35 39.61-29.51 7.9-2.5 16.33 1.89 18.82 9.79s-1.89 16.32-9.79 18.82c-15.37 4.85-27.09 17.63-30.58 33.34-1.68 8.66-2.52 17.6-2.52 26.67 0 31.39 10.68 60.76 28.5 82 5.56-17.78 17.64-33.23 34.17-42.8 7.17-4.14 16.35-1.7 20.5 5.47 4.15 7.18 1.7 16.35-5.47 20.5-13.95 8.07-22.62 23.09-22.62 39.18 2.8 19.53 9.31 38.19 19.03 54.43 11.65 19.48 27.36 34.47 45.42 43.37 11.57 5.71 28.97 15.85 46.34 37.86 5.32 6.73 13 10.59 21.08 10.59 8.09 0 15.77-3.86 21.08-10.59 13.24-16.78 27.3-28.29 45.6-37.33 18.07-8.96 33.83-24.01 45.58-43.54 9.8-16.29 16.45-35.07 19.42-54.73v-.06c0-16.09-8.67-31.11-22.62-39.18-7.17-4.15-9.62-13.32-5.47-20.5 4.15-7.17 13.32-9.61 20.49-5.47 16.48 9.54 28.53 24.91 34.12 42.62 17.43-21.17 27.88-50.45 27.88-81.82 0-9.06-.85-17.99-2.52-26.65-3.67-15.41-14.75-28.58-29.91-33.36-7.9-2.5-12.28-10.92-9.78-18.82 2.49-7.9 10.91-12.29 18.81-9.79 16.26 5.13 30.05 15.59 39.44 29.25 7.25-17.89 11.15-37.52 11.15-57.31 0-14.53-2.13-29.21-6.35-43.7z"/></g></svg>