<svg id="Layer_1" enable-background="new 0 0 512 512" height="512" viewBox="0 0 512 512" width="512" xmlns="http://www.w3.org/2000/svg"><g><path d="m481.866 223.582c-29.605 8.98-61.974-1.615-80.538-26.367-19.512-26.016-50.575-41.548-83.096-41.548h-62.232l-21.333 68.333 21.333 69.138c20.712 37.634 60.758 63.195 106.666 63.195h27.667c67.087 0 121.667-54.579 121.667-121.666v-20.224z" fill="#4980fa"/><path d="m193.768 155.667c-32.52 0-63.584 15.532-83.096 41.548-18.564 24.753-50.931 35.348-80.538 26.367l-30.134-9.138v20.224c0 67.087 54.579 121.666 121.667 121.666h27.667c45.908 0 85.954-25.56 106.667-63.195v-137.472z" fill="#5393fb"/></g></svg>