<?xml version="1.0" encoding="iso-8859-1"?>
<!-- Generator: Adobe Illustrator 19.0.0, SVG Export Plug-In . SVG Version: 6.00 Build 0)  -->
<svg version="1.1" id="Capa_1" xmlns="http://www.w3.org/2000/svg" xmlns:xlink="http://www.w3.org/1999/xlink" x="0px" y="0px"
	 viewBox="0 0 512.002 512.002" style="enable-background:new 0 0 512.002 512.002;" xml:space="preserve">
<g>
	<g>
		<path d="M211.938,361.358c-10.792-8.598-24.591-13.992-38.501-11.711c-10.954,1.796-20.1,8.183-26.398,16.897
			c-6.488,6.64-10.885,15.134-12.59,24.399c-2.033,11.052-0.436,22.303,6.702,31.24c6.495,8.134,16.163,13.082,25.915,16.203
			c10.025,3.208,21.482,5.574,31.907,3.156c10.565-2.449,19.653-9.619,25.371-18.717
			C237.464,401.945,230.624,376.248,211.938,361.358z M219.447,411.703c-3.007,7.797-8.764,14.662-16.223,18.51
			c-7.993,4.125-16.48,3.527-25.032,1.798c-15.563-3.147-34.281-11.018-36.036-29.096c-1.165-12,3.579-24.519,12.057-33.008
			c1.896-1.899,3.904-3.708,6.004-5.398c3.258-2.133,6.75-3.854,10.472-4.942c9.661-2.822,19.892-0.414,28.484,4.443
			C216.074,373.565,226.804,392.627,219.447,411.703z"/>
	</g>
</g>
<g>
	<g>
		<path d="M377.546,390.944c-1.705-9.266-6.101-17.76-12.59-24.399c-6.3-8.714-15.444-15.101-26.398-16.897
			c-13.909-2.281-27.709,3.113-38.501,11.712c-18.686,14.889-25.526,40.586-12.406,61.466c5.718,9.098,14.806,16.268,25.37,18.717
			c10.426,2.418,21.882,0.052,31.908-3.156c9.752-3.121,19.42-8.069,25.916-16.203C377.982,413.246,379.579,401.996,377.546,390.944
			z M369.84,402.916c-1.755,18.078-20.474,25.948-36.036,29.096c-8.552,1.729-17.039,2.327-25.032-1.798
			c-7.459-3.849-13.216-10.713-16.223-18.51c-7.357-19.078,3.372-38.14,20.273-47.694c8.593-4.856,18.824-7.265,28.485-4.442
			c3.722,1.088,7.214,2.81,10.472,4.942c2.1,1.689,4.107,3.499,6.004,5.398C366.261,378.398,371.005,390.916,369.84,402.916z"/>
	</g>
</g>
<g>
	<g>
		<path d="M468.067,245.428c-0.793-9.827-1.872-19.624-2.845-29.434c-0.721-7.284-1.479-15.121-6.204-21.054
			c-9.927-12.465-30.701-15.095-45.415-16.268c-19.066-1.52-38.276-0.212-57.381-0.814c-15.37-0.483-30.616-1.5-46.045-1.5
			c-5.016-0.09-10.031-0.18-15.047-0.27c-2.652-0.048-8.057,1.133-9.283-2.157c-1.588-4.26,0.49-9.656,1.481-13.723
			c6.386-26.205,16.863-50.835,25.818-76.178c4.69-13.272,8.133-26.929,11.247-40.645c2.924-12.887,8.067-25.403,10.047-38.468
			c0.334-2.203-0.962-5.192-3.73-4.897c-9.122,0.97-13.764,11.194-17.32,18.464c-5.625,11.495-11.201,23.018-16.438,34.696
			c-6.753,15.058-13.368,30.168-20.765,44.927c-3.397,6.78-6.768,13.526-9.999,20.385c-2.897,6.147-6.127,12.297-8.473,18.682
			c-0.554,1.423-1.37,3.376-2.158,5.56c-0.51-1.789-1-3.542-1.565-5.143c-2.297-6.5-5.25-12.871-8.185-19.099
			c-3.232-6.858-6.602-13.604-9.999-20.385c-7.396-14.759-14.012-29.87-20.765-44.927c-5.237-11.678-10.813-23.202-16.438-34.696
			c-3.557-7.27-8.198-17.494-17.32-18.464c-2.768-0.295-4.064,2.694-3.73,4.897c1.979,13.064,7.123,25.581,10.048,38.468
			c3.113,13.716,6.556,27.373,11.247,40.645c2.745,7.77,5.845,15.406,8.793,23.099c4.797,12.514,7.667,26.014,10.977,38.989
			c2.512,9.846,4.174,21.075,9.053,30.156c-3.504-1.475-7.379-0.374-11.152-0.221c-20.188,0.82-40.438,1.166-60.746,1.805
			c-19.104,0.602-38.315-0.706-57.382,0.814c-14.713,1.173-35.487,3.803-45.414,16.268c-4.726,5.933-5.482,13.77-6.204,21.054
			c-0.973,9.81-2.053,19.607-2.846,29.434c-0.826,10.231-1.365,20.494-1.336,30.761c0.021,7.074,0.018,14.309,1.829,21.201
			c1.325,5.039,3.691,10.653,8.315,13.508c5.216,3.22,11.127,1.5,15.729-1.965c0.698-0.526,1.354-1.084,1.973-1.671
			c4.863,4.35,17.212,2.9,21.904,2.455c12.053-1.143,24.111-1.983,36.211-2.425c11.909-0.436,23.828-0.582,35.745-0.589
			c8.393-0.005,17.731,1.256,26.399,0.465c-1.624,4.308-3.188,8.668-4.181,13.099c-3.513-0.081-7.007,0.292-10.427,1.322
			c-3.445,0.42-6.813,1.099-10.022,2.027c-19.367,5.603-34.858,20.293-44.583,37.6c-9.488,16.884-13.933,37.363-10.518,56.551
			c1.709,9.601,5.844,18.719,12.229,26.115c7.119,8.247,16.963,13.083,27.176,16.362c4.855,1.559,9.815,2.656,14.729,4
			c4.668,1.277,10.854,3.001,13.257,7.672c3.205,6.234-0.961,15.635-1.166,22.248c-0.532,17.199,17.738,22.533,30.267,13.49
			c12.063-8.707,19.486-23.322,25.926-36.348c9.258-18.727,16.77-38.536,19.538-59.339c3.298-24.776-1.436-49.583-18.217-68.765
			c-5.066-5.791-10.896-10.409-17.401-13.981c0.003-0.013,0.004-0.025,0.008-0.039c0.668-2.336,2.585-4.419,4.354-6.004
			c4.442-3.985,8.508-3.307,13.803-4.853c6.105-1.783,9.961-7.513,12.373-14.058c2.273,0.95,5.021,1.249,7.092,1.417
			c2.601,0.211,6.537,0.59,9.703-0.174c2.435,6.018,6.179,11.146,11.896,12.814c5.294,1.545,9.359,0.867,13.802,4.853
			c1.769,1.585,3.686,3.668,4.354,6.004c0.004,0.013,0.004,0.026,0.008,0.039c-6.505,3.572-12.335,8.19-17.401,13.981
			c-16.781,19.181-21.515,43.989-18.218,68.765c2.77,20.803,10.28,40.613,19.539,59.339c6.439,13.026,13.861,27.641,25.926,36.348
			c12.529,9.043,30.799,3.709,30.266-13.49c-0.204-6.613-4.37-16.014-1.164-22.248c2.401-4.671,8.589-6.395,13.256-7.672
			c4.912-1.344,9.873-2.44,14.729-4c10.212-3.279,20.058-8.115,27.176-16.362c6.386-7.396,10.52-16.515,12.229-26.115
			c3.415-19.188-1.029-39.667-10.518-56.551c-9.725-17.307-25.216-31.997-44.583-37.6c-3.208-0.928-6.576-1.607-10.023-2.027
			c-3.419-1.03-6.913-1.402-10.425-1.322c-0.993-4.431-2.559-8.792-4.182-13.099c8.668,0.791,18.007-0.47,26.399-0.465
			c11.917,0.007,23.836,0.154,35.746,0.589c12.099,0.442,24.157,1.282,36.209,2.425c4.693,0.445,17.043,1.896,21.905-2.455
			c0.619,0.586,1.274,1.145,1.973,1.671c4.602,3.465,10.514,5.185,15.728,1.965c4.626-2.855,6.991-8.469,8.315-13.508
			c1.813-6.892,1.81-14.127,1.829-21.201C469.434,265.921,468.894,255.659,468.067,245.428z M287.065,219.058
			c1.586,0.163,3.384,0.814,4.554,1.031c1.419,0.263,2.857,0.49,4.3,0.699c-1.717,5.692-0.87,12.651-0.695,18.25
			c0.059,1.892,0.13,3.782,0.202,5.673c-0.072-1.908-1.652-4.588-2.342-6.383c-0.911-2.371-1.889-4.722-3.08-6.967
			c-0.926-1.742-1.871-3.52-3.144-5.039c-1.183-1.412-3.181-2.543-3.149-4.606C283.748,219.314,285.271,218.874,287.065,219.058z
			 M261.416,153.111c0.197-0.652,0.409-1.307,0.635-1.964c1.422-4.137,3.37-8.317,5.022-12.302c1.299-3.131,2.479-6.154,3.444-9.192
			c1.615-3.029,3.487-6.017,4.777-8.958c2.682-6.114,5.856-11.975,8.82-17.954c6.48-13.072,12.505-26.367,18.098-39.842
			c4.951-11.926,10.37-23.616,15.493-35.459c1.724-3.986,3.424-7.997,5.603-11.763c0.396-0.687,0.894-1.603,1.471-2.565
			c-2.486,9.762-5.827,19.358-8.056,29.174c-2.966,13.067-6.181,26.135-10.469,38.84c-4.335,12.847-9.792,25.302-13.793,38.264
			c-2.069,6.704-4.232,13.396-6.196,20.13c-0.623,2.142-0.617,4.214-1.425,6.279c-0.829,2.123-1.786,4.187-2.489,6.359
			c-1.21,3.738-2.737,8.068-3.284,12.259c-2.904-2.438-6.214-4.403-9.928-5.709C266.084,157.633,260.03,157.734,261.416,153.111z
			 M263.069,166.567c11.267,1.891,18.39,11.965,20.767,22.51c2.288,10.15,0.471,22.428-7.754,29.533
			c-11.473,9.91-32.296,6.757-41.146-5.109c-6.437-8.629-5.052-20.004-0.878-29.299c2.073-4.618,4.918-8.965,8.687-12.375
			C248.548,167.406,255.793,165.345,263.069,166.567z M227.004,145.588c-0.308-2.029-0.688-4.055-1.273-6.067
			c-5.78-19.831-13.396-38.854-19.989-58.394c-4.288-12.705-7.503-25.772-10.469-38.84c-2.229-9.815-5.569-19.412-8.056-29.174
			c0.577,0.963,1.073,1.879,1.471,2.565c2.179,3.766,3.879,7.776,5.603,11.763c5.123,11.843,10.542,23.533,15.493,35.459
			c5.593,13.475,11.618,26.77,18.098,39.842c2.964,5.979,6.14,11.839,8.82,17.954c3.108,7.088,7.008,13.769,9.182,21.245
			c1.379,4.742,2.598,11.113,5.451,15.859c-4.587,1.033-8.953,3.018-12.653,5.863c-1.698,1.306-3.346,2.878-4.896,4.631
			C231.394,160.76,229.234,153.207,227.004,145.588z M213.807,220.192c4.242,0.444,8.947,0.913,12.579-0.352
			c-3.048,5.251-5.788,11.724-7.346,18.161c-1.057,2.738-2.01,5.527-3.044,8.249c-0.838,2.203-1.754,4.378-2.711,6.537
			c-0.113-4.237-0.169-8.391,0.229-12.635C214.016,234.803,216.18,225.94,213.807,220.192z M92.937,246.175
			c-0.061,8.174-0.113,16.352-0.606,24.514c-0.366,6.038-1.216,12.036-1.545,18.075c-0.203,3.729-0.483,8.25,0.54,12.141
			c-0.319,0.032-0.638,0.064-0.957,0.097c-5.119,0.516-10.13-0.064-15.199,0.012c4.678-8.576,5.259-19.812,5.804-29.065
			c0.386-6.546,0.861-13.081,1.21-19.629c0.391-7.318,0.639-16.221,5.473-22.192c1.717-2.121,3.89-3.401,6.277-4.214
			C92.666,232.515,92.986,239.523,92.937,246.175z M109.879,237.998c-0.156,7.277-0.268,14.556-0.402,21.833
			c-0.24,13.05-0.859,26.305-0.381,39.374c-3.186,0.276-6.369,0.568-9.552,0.879c-0.407-4.562-0.935-8.932-0.61-13.665
			c0.406-5.94,1.119-11.807,1.16-17.769c0.052-7.495-0.223-14.989-0.528-22.476c-0.285-6.995-0.171-14.323-1.525-21.237
			c1.002-0.158,2.017-0.276,3.029-0.372c3.144-0.297,6.278-0.649,9.414-0.998C109.868,228.331,109.98,233.315,109.879,237.998z
			 M126.862,262.021c0.221,7.331,0.63,14.655,0.874,21.986c0.139,4.188-0.657,9.488,0.199,13.954
			c-0.781,0.035-1.563,0.06-2.344,0.097c-2.459,0.117-4.914,0.267-7.367,0.434c0.43-12.837-0.174-25.849-0.409-38.66
			c-0.128-6.931-0.256-13.861-0.384-20.792c-0.096-5.215,0.06-10.834-0.718-16.128c3.778-0.361,7.564-0.626,11.354-0.828
			c-1.383,5.438-1.416,11.553-1.53,16.965C126.376,246.699,126.632,254.374,126.862,262.021z M145.094,260.21
			c-0.01,7.142,0.061,14.273,0.342,21.41c0.183,4.67-0.406,10.742,0.724,15.755c-2.931,0.067-5.861,0.131-8.791,0.226
			c0.571-4.092-0.273-8.77-0.433-12.597c-0.318-7.664-0.723-15.328-1.204-22.983c-0.46-7.32-0.864-14.644-1.056-21.976
			c-0.153-5.906,0.135-12.286-0.828-18.222c4.215-0.15,8.431-0.217,12.647-0.251C144.341,234.119,145.109,247.634,145.094,260.21z
			 M162.316,297.105c-2.203,0.02-4.405,0.062-6.608,0.093c0.574-5.059-0.595-10.691-0.834-15.578
			c-0.349-7.135-0.694-14.272-0.984-21.41c-0.515-12.644,0.204-26.114-1.979-38.697c4.516-0.037,9.009-0.175,13.5-0.345
			c-0.647,2.629-0.531,5.756-0.511,7.778c0.072,7.347,0.804,14.766,1.112,22.115c0.368,8.802,0.396,17.535,0.078,26.336
			c-0.233,6.461-0.507,13.305,0.847,19.721C165.394,297.101,163.853,297.092,162.316,297.105z M186.984,235.038
			c0.286,9.314-0.089,18.66-0.115,27.978c-0.025,8.751,0.318,17.547-0.183,26.287c-0.124,2.157-0.506,5.171-0.298,7.969
			c-3.617,0.1-7.247,0.064-10.876-0.003c-1.248-7.206-0.976-14.299-0.669-21.606c0.33-7.869,0.18-15.715-0.155-23.583
			c-0.288-6.779-0.805-13.482-1.691-20.208c-0.396-3.003-0.095-7.389-0.767-10.982c3.639-0.161,7.279-0.327,10.934-0.48
			c1.399-0.059,2.793-0.055,4.183-0.024C186.342,225.104,186.834,230.14,186.984,235.038z M184.711,211.536
			c-8.883,0.189-17.722,1.314-26.63,1.394c-9.193,0.083-18.383,0.13-27.567,0.605c-9.108,0.472-18.08,1.772-27.147,2.603
			c-6.767,0.62-13.546,1.06-19.124,5.378c-5.138,3.979-7.998,10.1-9.367,16.333c-2.707,12.333-2.301,25.529-3.316,38.09
			c-0.503,6.229-1.182,12.785-3.646,18.596c-1.361,3.211-6.143,10.883-10.491,8.156c-3.438-2.155-4.49-9.357-4.969-12.936
			c-1.068-7.995-0.724-16.386-0.529-24.428c0.428-17.76,1.396-36.209,4.318-53.755c1.391-8.356,5.077-13.269,12.807-16.79
			c7.047-3.211,14.896-4.88,22.529-5.938c19.555-2.712,39.406-1.121,59.067-1.866c12.528-0.475,25.008-1.843,37.544-2.164
			c6.415-0.164,12.846-0.058,19.233,0.589c5.64,0.57,11.587,1.764,17.142-0.042c-0.47,1.813-0.788,3.637-0.924,5.446
			c-1.157,5.099-1.433,10.36-0.477,15.404c0.281,1.485,0.674,2.913,1.158,4.287c-1.905-0.257-3.931-0.151-5.961-0.188
			C206.973,210.1,196.084,211.294,184.711,211.536z M206.816,253.246c0.166,4.226-0.187,8.432,0.301,12.609
			c-1.216,2.534-2.414,5.074-3.543,7.637c-3.012,6.843-5.636,13.821-8.162,20.846c0.044-2.265,0.243-4.524,0.344-6.787
			c0.38-8.491-0.041-17.047-0.068-25.546c-0.025-8.399,0.287-16.955-0.332-25.333c-0.396-5.364-1.189-10.7-1.777-16.051
			c4.309,0.17,8.566,0.202,12.771-0.8c0.734-0.041,1.41-0.065,2.003-0.057c0.138,0.002,0.284,0.01,0.426,0.014
			c-0.327,2.673-0.128,5.522-0.368,8.181c-0.387,4.304-1.028,8.567-1.492,12.862C206.47,244.981,206.651,249.07,206.816,253.246z
			 M226.258,348.109c13.658,14.539,19.025,33.613,18.15,53.248c-0.871,19.563-7.064,38.868-15.08,56.607
			c-5.367,11.881-11.262,24.274-19.541,34.426c-3.478,4.264-8.263,9.728-14.063,10.537c-6.448,0.899-9.269-3.961-8.567-9.663
			c0.874-7.095,3.354-13.972,1.935-21.198c-1.48-7.536-7.461-12.436-14.271-15.238c-8.519-3.505-17.848-4.599-26.489-7.825
			c-9.164-3.422-17.036-9.066-22.123-17.53c-9.135-15.199-8.176-34.527-2.997-50.899c5.786-18.291,18.207-35.384,35.413-44.376
			c9.408-4.917,20.35-7.366,30.953-6.529c1.158,0.092,2.293,0.243,3.417,0.423c3.235,0.869,6.372,1.923,9.256,2.944
			C211.543,336.325,219.457,340.869,226.258,348.109z M248.283,268.55c-0.654,5.131-2.683,10.191-3.842,15.869
			c-1.704,8.354-2.541,19.229-9.959,24.786c-2.015,1.509-4.686,1.196-7.048,1.609c-2.89,0.504-5.564,1.707-7.982,3.369
			c-3.984,2.74-7.806,6.933-8.876,11.816c-1.887-0.785-3.816-1.502-5.797-2.142c-3.467-1.119-7.021-2.108-10.602-2.768
			c3.173-5.476,5.174-11.853,7.248-17.655c3.182-8.897,6.322-17.791,10.18-26.425c3.759-8.411,8.06-16.644,11.33-25.263
			c0.388-1.021,0.76-2.049,1.138-3.074c2.14-3.844,3.724-8.106,5.422-12.082c1.019-2.382,2.073-4.824,3.061-7.296
			c1.185,2.965,2.71,5.821,4.118,8.47c3.492,6.564,7.364,12.926,10.243,19.8C248.528,261.413,248.735,264.998,248.283,268.55z
			 M255.403,296.209c-1.248,0.023-2.531,0.005-3.815,0.027c1.16-2.437,1.763-5.292,2.364-7.804c0.498-2.079,1.307-4.716,1.96-7.462
			c1.755,4.848,3.487,9.706,5.245,14.561C259.125,295.772,257.057,296.179,255.403,296.209z M292.543,314.183
			c-2.417-1.662-5.092-2.865-7.981-3.369c-2.362-0.413-5.033-0.101-7.047-1.609c-1.938-1.452-3.238-3.404-4.212-5.609
			c0.231-2.052-0.799-4.75-1.337-6.417c-0.778-2.412-1.597-4.801-2.434-7.181c-0.317-1.082-0.68-2.124-1.104-3.112
			c-3.301-9.118-6.928-18.076-10.469-27.158c-3.005-7.706-6.656-14.753-10.965-21.807c-1.76-2.881-3.438-5.937-5.178-8.967
			c9.789,4.587,21.68,5.288,31.597,1.181c2.456-1.018,4.65-2.306,6.636-3.781c-0.045,0.385-0.008,0.792,0.156,1.217
			c3.086,8.016,5.809,16.151,8.855,24.177c3.271,8.619,7.572,16.852,11.33,25.263c3.858,8.634,6.998,17.527,10.18,26.425
			c2.075,5.802,4.075,12.18,7.249,17.655c-3.58,0.659-7.135,1.648-10.603,2.768c-1.98,0.64-3.911,1.356-5.798,2.142
			C300.35,321.116,296.528,316.923,292.543,314.183z M316.309,262.005c-0.027,8.499-0.448,17.055-0.069,25.546
			c0.101,2.263,0.3,4.522,0.345,6.787c-2.527-7.025-5.15-14.003-8.163-20.846c-2.256-5.124-4.778-10.157-7.187-15.233
			c0.748-5.903-0.534-12.75-0.768-18.236c-0.246-5.811,0.521-12.761-0.694-18.737c1.046,0.116,2.09,0.222,3.128,0.311
			c4.922,0.417,10.179,0.669,15.364,0.335c-0.567,4.912-1.26,9.815-1.624,14.741C316.021,245.051,316.334,253.606,316.309,262.005z
			 M322.42,329.668c10.604-0.837,21.545,1.612,30.953,6.529c17.207,8.992,29.627,26.085,35.413,44.376
			c5.179,16.373,6.138,35.7-2.997,50.899c-5.087,8.464-12.959,14.108-22.123,17.53c-8.642,3.227-17.971,4.32-26.488,7.825
			c-6.812,2.803-12.791,7.703-14.272,15.238c-1.42,7.227,1.061,14.104,1.935,21.198c0.701,5.701-2.119,10.562-8.567,9.663
			c-5.801-0.809-10.586-6.273-14.063-10.537c-8.279-10.152-14.173-22.545-19.541-34.426c-8.016-17.739-14.209-37.044-15.08-56.607
			c-0.875-19.635,4.492-38.709,18.15-53.248c6.801-7.24,14.716-11.785,24.009-15.074c2.884-1.021,6.021-2.076,9.256-2.944
			C320.127,329.911,321.262,329.76,322.42,329.668z M338.999,231.872c-0.887,6.725-1.403,13.428-1.691,20.208
			c-0.335,7.868-0.485,15.714-0.155,23.583c0.307,7.308,0.579,14.4-0.669,21.606c-3.629,0.067-7.259,0.103-10.876,0.003
			c0.208-2.798-0.174-5.812-0.297-7.969c-0.501-8.74-0.158-17.536-0.184-26.287c-0.027-9.317-0.402-18.663-0.115-27.978
			c0.142-4.633,0.574-9.385-0.228-13.88c1.155-0.21,2.296-0.467,3.421-0.763c0.209,0.006,0.418,0.005,0.627,0.014
			c3.654,0.153,7.295,0.32,10.934,0.48C339.094,224.482,339.394,228.868,338.999,231.872z M358.106,260.21
			c-0.29,7.138-0.636,14.275-0.984,21.41c-0.239,4.887-1.407,10.52-0.834,15.578c-2.203-0.031-4.405-0.073-6.608-0.093
			c-1.537-0.014-3.078-0.004-4.621,0.013c1.354-6.416,1.08-13.26,0.847-19.721c-0.318-8.801-0.29-17.534,0.078-26.336
			c0.308-7.349,1.04-14.768,1.113-22.115c0.02-2.022,0.137-5.149-0.512-7.778c4.49,0.17,8.984,0.308,13.5,0.345
			C357.902,234.096,358.62,247.566,358.106,260.21z M377.32,240.045c-0.191,7.332-0.596,14.656-1.056,21.976
			c-0.481,7.655-0.886,15.319-1.204,22.983c-0.159,3.828-1.004,8.505-0.433,12.597c-2.93-0.094-5.86-0.158-8.791-0.226
			c1.13-5.013,0.54-11.085,0.724-15.755c0.281-7.137,0.352-14.269,0.342-21.41c-0.016-12.576,0.753-26.091-1.401-38.638
			c4.217,0.034,8.433,0.101,12.647,0.251C377.185,227.759,377.474,234.139,377.32,240.045z M394.564,239.039
			c-0.128,6.931-0.256,13.861-0.383,20.792c-0.236,12.812-0.841,25.823-0.41,38.66c-2.453-0.167-4.908-0.317-7.367-0.434
			c-0.781-0.038-1.563-0.063-2.344-0.097c0.855-4.466,0.061-9.766,0.199-13.954c0.244-7.331,0.653-14.655,0.874-21.986
			c0.23-7.647,0.486-15.321,0.324-22.972c-0.114-5.412-0.147-11.528-1.53-16.965c3.79,0.202,7.576,0.466,11.355,0.828
			C394.504,228.205,394.66,233.824,394.564,239.039z M413.062,286.42c0.323,4.732-0.204,9.103-0.61,13.665
			c-3.183-0.312-6.366-0.603-9.552-0.879c0.479-13.069-0.141-26.324-0.381-39.374c-0.135-7.277-0.246-14.556-0.402-21.833
			c-0.102-4.683,0.01-9.667-0.604-14.43c3.136,0.349,6.271,0.701,9.413,0.998c1.014,0.096,2.028,0.214,3.03,0.372
			c-1.354,6.914-1.24,14.242-1.525,21.237c-0.306,7.487-0.58,14.981-0.528,22.476C411.943,274.613,412.656,280.479,413.062,286.42z
			 M421.627,301.002c-0.319-0.032-0.638-0.064-0.957-0.097c1.023-3.891,0.743-8.412,0.54-12.141
			c-0.329-6.04-1.179-12.037-1.545-18.075c-0.493-8.162-0.546-16.34-0.605-24.514c-0.05-6.652,0.271-13.661-0.996-20.262
			c2.387,0.813,4.56,2.093,6.276,4.214c4.834,5.971,5.082,14.874,5.473,22.192c0.349,6.548,0.824,13.083,1.21,19.629
			c0.545,9.254,1.126,20.489,5.804,29.065C431.757,300.938,426.746,301.518,421.627,301.002z M459.543,289.755
			c-0.479,3.579-1.531,10.781-4.969,12.936c-4.35,2.727-9.13-4.945-10.491-8.156c-2.464-5.811-3.143-12.366-3.646-18.596
			c-1.016-12.562-0.609-25.758-3.317-38.09c-1.368-6.233-4.229-12.355-9.366-16.333c-5.578-4.318-12.356-4.758-19.124-5.378
			c-9.067-0.83-18.038-2.131-27.147-2.603c-9.184-0.476-18.375-0.523-27.566-0.605c-8.909-0.079-17.747-1.204-26.631-1.394
			c-1.574-0.033-3.156,0.007-4.742,0.08c-7.402-0.491-15.004,0.129-22.309-0.522c-1.453-0.13-5.415-0.553-9.066-0.313
			c1.877-5.484,2.484-11.372,2.033-17.139c-0.151-1.933-1.929-6.62-1.242-8.299c0.858-2.099,5.936-1.058,7.902-1.045
			c16.443,0.108,32.854,0.663,49.257,1.864c7.794,0.57,15.347,0.985,23.132,1.03c8.292,0.047,16.586-0.106,24.879,0.042
			c7.783,0.139,15.573,0.538,23.289,1.608c7.634,1.059,15.482,2.728,22.529,5.938c7.729,3.521,11.416,8.434,12.807,16.79
			c2.923,17.546,3.891,35.995,4.318,53.755C460.266,273.369,460.611,281.76,459.543,289.755z"/>
	</g>
</g>
<g>
	<g>
		<path d="M254.018,186.808c-3.652,1.079-6.076,4.322-6.253,8.096c-0.51,2.489,0.007,5.164,1.315,7.357
			c4.419,7.409,17.171,5.938,19.278-2.636C270.319,191.648,261.535,184.588,254.018,186.808z"/>
	</g>
</g>
<g>
</g>
<g>
</g>
<g>
</g>
<g>
</g>
<g>
</g>
<g>
</g>
<g>
</g>
<g>
</g>
<g>
</g>
<g>
</g>
<g>
</g>
<g>
</g>
<g>
</g>
<g>
</g>
<g>
</g>
</svg>
